<?xml version="1.0" standalone="no"?><!DOCTYPE svg PUBLIC "-//W3C//DTD SVG 1.1//EN" "http://www.w3.org/Graphics/SVG/1.1/DTD/svg11.dtd"><svg width="200" height="200" viewBox="0 0 200 200" version="1.1" xmlns="http://www.w3.org/2000/svg" xmlns:xlink="http://www.w3.org/1999/xlink"><defs><style type="text/css"><![CDATA[
@font-face { font-family: ifont; src: url("//at.alicdn.com/t/font_1442373896_4754455.eot?#iefix") format("embedded-opentype"), url("//at.alicdn.com/t/font_1442373896_4754455.woff") format("woff"), url("//at.alicdn.com/t/font_1442373896_4754455.ttf") format("truetype"), url("//at.alicdn.com/t/font_1442373896_4754455.svg#ifont") format("svg"); }

]]></style></defs><g class="transform-group"><g transform="scale(0.1953125, 0.1953125)"><path d="M958.656 783.36c0 13.312-8 24.704-19.392 29.12-4.48 1.792-8.896 2.688-12.48 2.688-8.768 0-16.768-2.688-22.016-9.728l-201.28-200.32 0 82.944c0 78.592-64.384 142.976-143.808 142.976L209.28 831.04c-79.488 0-143.872-64.448-143.872-142.976L65.408 336.896c0-79.488 64.384-143.936 143.872-143.936l350.4 0c79.424 0 143.808 64.448 143.808 143.936l0 82.112 200.256-200.384c6.272-6.208 14.272-9.728 22.272-9.728 3.52 0 8.768 0.832 12.224 2.624 11.52 4.416 19.52 16.768 19.52 29.184l0 542.72L958.656 783.424 958.656 783.36z" fill="#ffffff"></path></g></g></svg>